<?xml version="1.0" encoding="UTF-8" standalone="no"?>
<!-- Created with Inkscape (http://www.inkscape.org/) -->

<svg
   xmlns:dc="http://purl.org/dc/elements/1.1/"
   xmlns:cc="http://creativecommons.org/ns#"
   xmlns:rdf="http://www.w3.org/1999/02/22-rdf-syntax-ns#"
   xmlns:svg="http://www.w3.org/2000/svg"
   xmlns="http://www.w3.org/2000/svg"
   xmlns:sodipodi="http://sodipodi.sourceforge.net/DTD/sodipodi-0.dtd"
   xmlns:inkscape="http://www.inkscape.org/namespaces/inkscape"
   width="58.66029mm"
   height="32.868778mm"
   viewBox="0 0 58.66029 32.868778"
   version="1.1"
   id="svg8"
   inkscape:version="0.92pre1 unknown"
   sodipodi:docname="TylerDupree.svg">
  <defs
     id="defs2" />
  <sodipodi:namedview
     id="base"
     pagecolor="#ffffff"
     bordercolor="#666666"
     borderopacity="1.0"
     inkscape:pageopacity="0.0"
     inkscape:pageshadow="2"
     inkscape:zoom="1.4"
     inkscape:cx="90.507341"
     inkscape:cy="-101.27069"
     inkscape:document-units="mm"
     inkscape:current-layer="layer1"
     showgrid="false"
     inkscape:window-width="1879"
     inkscape:window-height="1176"
     inkscape:window-x="41"
     inkscape:window-y="24"
     inkscape:window-maximized="1"
     fit-margin-top="0"
     fit-margin-left="0"
     fit-margin-right="0"
     fit-margin-bottom="0" />
  <metadata
     id="metadata5">
    <rdf:RDF>
      <cc:Work
         rdf:about="">
        <dc:format>image/svg+xml</dc:format>
        <dc:type
           rdf:resource="http://purl.org/dc/dcmitype/StillImage" />
        <dc:title></dc:title>
      </cc:Work>
    </rdf:RDF>
  </metadata>
  <g
     inkscape:label="Calque 1"
     inkscape:groupmode="layer"
     id="layer1"
     transform="translate(-32.475941,-9.0197699)">
    <rect
       style="opacity:1;fill:#eeeeec;fill-opacity:1;stroke:none;stroke-width:0.52916664;stroke-linecap:round;stroke-linejoin:bevel;stroke-miterlimit:4;stroke-dasharray:none;stroke-dashoffset:0;stroke-opacity:1;paint-order:markers fill stroke"
       id="rect4288"
       width="58.453747"
       height="8.8171158"
       x="32.606884"
       y="9.2843533"
       ry="1.0893637" />
    <rect
       style="opacity:1;fill:none;fill-opacity:1;stroke:#000000;stroke-width:0.52916676;stroke-linecap:round;stroke-linejoin:bevel;stroke-miterlimit:4;stroke-dasharray:none;stroke-dashoffset:0;stroke-opacity:1"
       id="rect4282"
       width="58.131123"
       height="32.339611"
       x="32.740524"
       y="9.2843533"
       ry="1.0893637" />
    <text
       xml:space="preserve"
       style="font-style:normal;font-weight:normal;font-size:10.58333302px;line-height:20000%;font-family:sans-serif;letter-spacing:0px;word-spacing:0px;fill:#000000;fill-opacity:1;stroke:none;stroke-width:0.26458332px;stroke-linecap:butt;stroke-linejoin:miter;stroke-opacity:1"
       x="55.592064"
       y="15.832457"
       id="text4286"
       sodipodi:linespacing="20000%"><tspan
         sodipodi:role="line"
         id="tspan4284"
         x="55.592064"
         y="15.832457"
         style="font-style:normal;font-variant:normal;font-weight:normal;font-stretch:normal;font-size:5.64444447px;line-height:20000%;font-family:Arial;-inkscape-font-specification:'Arial, Normal';font-variant-ligatures:normal;font-variant-caps:normal;font-variant-numeric:normal;font-feature-settings:normal;text-align:start;writing-mode:lr-tb;text-anchor:start;stroke-width:0.26458332px">Tyler Dupree</tspan></text>
    <circle
       style="opacity:1;fill:#ffffff;fill-opacity:1;stroke:none;stroke-width:0.52916664;stroke-linecap:round;stroke-linejoin:bevel;stroke-miterlimit:4;stroke-dasharray:none;stroke-dashoffset:0;stroke-opacity:1;paint-order:markers fill stroke"
       id="path4389"
       cx="46.963539"
       cy="25.046131"
       r="10.961308" />
    <g
       id="g4280"
       transform="matrix(0.26458333,0,0,0.26458333,33.639881,13.221146)">
      <g
         id="g4254">
        <path
           id="path4236"
           d="m 74.1,37.1 c 0,0 0,0 0,0 V 35.5 C 74.1,22.5 63.8,12.7 50,12.7 36.2,12.7 25.9,22.5 25.9,35.5 v 1.6 c 0,0 0,0 0,0 -3.8,0 -6.8,3.1 -6.8,6.8 v 4.4 c 0,3.8 3.1,6.8 6.8,6.8 0,0 0,0 0,0 v 9.5 c 0,2.3 0.8,4.7 2.2,6.5 L 36,81.2 c 0.5,0.6 5.2,6.2 9.7,6.2 h 8.6 c 4.5,0 9.2,-5.5 9.8,-6.2 l 7.8,-10 c 1.4,-1.8 2.2,-4.1 2.2,-6.5 v -9.5 c 0,0 0,0 0,0 3.8,0 6.8,-3.1 6.8,-6.8 V 44 c 0,-3.8 -3.1,-6.9 -6.8,-6.9 z M 50,16.7 c 10.1,0 18,6.3 19.7,15.1 -0.9,-1.4 -2.1,-2.8 -3.6,-4.2 -2.5,-2.4 -6.2,-3.5 -9.8,-3 -4.2,0.7 -8.4,0.7 -12.5,0 l -0.9,-0.1 c -3,-0.5 -5.9,0.4 -8.2,2.4 -1.9,1.7 -3.3,3.3 -4.3,4.8 1.7,-8.8 9.6,-15 19.6,-15 z M 25.9,51.1 c -1.6,0 -2.8,-1.3 -2.8,-2.8 v -4.4 c 0,-1.6 1.3,-2.8 2.8,-2.8 0,0 0,0 0,0 v 10 c 0,0 0,0 0,0 z m 42.8,17.6 -3.5,4.5 -0.9,-3.1 c -2.3,-6.7 -8,-7.4 -10.8,-6.7 -0.8,0.2 -1.3,1 -1.1,1.8 0.2,0.8 1,1.3 1.8,1.1 0.5,-0.1 5.4,-1 7.3,4.7 l 1.4,5.1 -2,2.5 c -0.7,0.8 -1.6,1.8 -2.6,2.6 v -2.7 c 0,-0.8 -0.7,-1.5 -1.5,-1.5 -0.8,0 -1.5,0.7 -1.5,1.5 v 4.6 c -0.4,0.1 -0.7,0.2 -1,0.2 h -0.5 v -4.8 c 0,-0.8 -0.7,-1.5 -1.5,-1.5 -0.8,0 -1.5,0.7 -1.5,1.5 v 4.8 h -1.5 v -4.8 c 0,-0.8 -0.7,-1.5 -1.5,-1.5 -0.8,0 -1.5,0.7 -1.5,1.5 v 4.8 h -0.5 c -0.3,0 -0.6,-0.1 -1,-0.2 v -4.6 c 0,-0.8 -0.7,-1.5 -1.5,-1.5 -0.8,0 -1.5,0.7 -1.5,1.5 v 2.7 c -1,-0.8 -1.9,-1.8 -2.6,-2.5 l -2,-2.6 1.4,-5 c 1.9,-5.7 6.7,-4.9 7.3,-4.8 0.8,0.2 1.6,-0.3 1.8,-1.1 0.2,-0.8 -0.3,-1.6 -1.1,-1.8 -2.7,-0.6 -8.5,0 -10.8,6.8 l -0.8,3 -3.5,-4.5 c -0.9,-1.1 -1.4,-2.6 -1.4,-4 V 39.5 c 0,-0.1 0,-0.1 0,-0.2 0,0 0.7,-4.8 6.7,-10.2 1.5,-1.4 3.6,-2 5.7,-1.7 l 0.9,0.1 c 4.5,0.7 9,0.7 13.5,0 2.7,-0.4 5.4,0.4 7.3,2.2 5,4.7 6,9.7 6,9.7 0,0 0,0.1 0,0.1 v 25.2 c -0.1,1.4 -0.6,2.8 -1.5,4 z m 8.2,-20.4 c 0,1.6 -1.3,2.8 -2.8,2.8 0,0 0,0 0,0 v -10 c 0,0 0,0 0,0 1.6,0 2.8,1.3 2.8,2.8 z"
           inkscape:connector-curvature="0" />
        <circle
           id="circle4238"
           r="2.0999999"
           cy="48"
           cx="38.599998" />
        <circle
           id="circle4240"
           r="2.0999999"
           cy="48"
           cx="61.400002" />
        <path
           id="path4242"
           d="m 65,40.5 c -2.7,-0.9 -5.4,-0.5 -7.7,1.1 -0.7,0.5 -0.8,1.4 -0.3,2.1 0.3,0.4 0.8,0.6 1.2,0.6 0.3,0 0.6,-0.1 0.9,-0.3 1.5,-1.1 3.2,-1.4 5,-0.7 0.8,0.3 1.6,-0.1 1.9,-0.9 0.2,-0.8 -0.2,-1.6 -1,-1.9 z"
           inkscape:connector-curvature="0" />
        <path
           id="path4244"
           d="m 43.1,41.7 c -2.3,-1.7 -5,-2.1 -7.7,-1.1 -0.8,0.3 -1.2,1.1 -0.9,1.9 0.3,0.8 1.1,1.2 1.9,0.9 1.8,-0.6 3.4,-0.4 5,0.7 0.3,0.2 0.6,0.3 0.9,0.3 0.5,0 0.9,-0.2 1.2,-0.6 0.4,-0.7 0.3,-1.7 -0.4,-2.1 z"
           inkscape:connector-curvature="0" />
        <path
           id="path4246"
           d="m 46.1,68.1 c -0.7,-0.4 -1.6,-0.2 -2.1,0.5 -0.4,0.7 -0.2,1.6 0.5,2.1 1.4,0.9 3.4,1.4 5.5,1.4 2.1,0 4,-0.5 5.5,-1.4 0.7,-0.4 0.9,-1.3 0.5,-2.1 -0.4,-0.8 -1.3,-0.9 -2.1,-0.5 -1,0.6 -2.4,0.9 -3.9,0.9 -1.5,0.1 -3,-0.3 -3.9,-0.9 z"
           inkscape:connector-curvature="0" />
        <path
           id="path4248"
           d="M 54,45.7 C 53.9,44.9 53.2,44.3 52.4,44.3 51.6,44.4 51,45.1 51,45.9 l 1,12.9 c -0.1,0.4 -1.2,1 -2,1 -0.8,0 -1.9,-0.7 -2,-1 l 1,-12.9 c 0.1,-0.8 -0.6,-1.5 -1.4,-1.6 -0.8,-0.1 -1.5,0.6 -1.6,1.4 l -1,13 c 0,0 0,0.1 0,0.1 0,2.4 3,4 5,4 2,0 5,-1.6 5,-4 0,0 0,-0.1 0,-0.1 z"
           inkscape:connector-curvature="0" />
        <path
           id="path4250"
           d="m 63.7,53.4 h -4.1 c -0.8,0 -1.5,0.7 -1.5,1.5 0,0.8 0.7,1.5 1.5,1.5 h 4.1 c 0.8,0 1.5,-0.7 1.5,-1.5 0,-0.8 -0.7,-1.5 -1.5,-1.5 z"
           inkscape:connector-curvature="0" />
        <path
           id="path4252"
           d="m 40.4,53.4 h -4.1 c -0.8,0 -1.5,0.7 -1.5,1.5 0,0.8 0.7,1.5 1.5,1.5 h 4.1 c 0.8,0 1.5,-0.7 1.5,-1.5 0,-0.8 -0.6,-1.5 -1.5,-1.5 z"
           inkscape:connector-curvature="0" />
      </g>
    </g>
    <text
       xml:space="preserve"
       style="font-style:normal;font-weight:normal;font-size:10.58333302px;line-height:20000%;font-family:sans-serif;letter-spacing:0px;word-spacing:0px;fill:#000000;fill-opacity:1;stroke:none;stroke-width:0.26458332px;stroke-linecap:butt;stroke-linejoin:miter;stroke-opacity:1"
       x="61.837296"
       y="29.874186"
       id="text4286-3"
       sodipodi:linespacing="20000%"><tspan
         sodipodi:role="line"
         id="tspan4284-1"
         x="61.837296"
         y="29.874186"
         style="font-style:normal;font-variant:normal;font-weight:normal;font-stretch:normal;font-size:5.64444447px;line-height:20000%;font-family:Arial;-inkscape-font-specification:'Arial, Normal';font-variant-ligatures:normal;font-variant-caps:normal;font-variant-numeric:normal;font-feature-settings:normal;text-align:start;writing-mode:lr-tb;text-anchor:start;stroke-width:0.26458332px">IGR 2 C</tspan></text>
  </g>
</svg>
